# xmcd
#
# Track frame offsets:
#	150
#	15370
#	31629
#	50967
#	68202
#	89926
#	109214
#	127946
#	146519
#	166188
#	183432
#	200889
#	216030
#
# Disc length: 3051 seconds
#
# Revision: 0
# Processed by: cddbd v1.5.2PL0 Copyright (c) Steve Scherf et al.
# Submitted via: EasyCDDAExtractor 10.2.0.1
#
DISCID=bc0be90d
DTITLE=Various Artist - Love Memories CD 3
DYEAR=2008
DGENRE=Romantic
TTITLE0=Simply Red - If You Don't Know Me By Now
TTITLE1=Tina Turner - Let's Stay Together
TTITLE2=Bryan Ferry - Slave To Love
TTITLE3=Chicago - If You Leave Me Now
TTITLE4=Extreme - More Than Words
TTITLE5=Peter Cetera - Glory Of Love
TTITLE6=Stephen Bishop - It Might Be You
TTITLE7=Will to Power - Baby I Love Your Way, Free Bird (Pot-Pourri)
TTITLE8=The Manhattans - Forever By Your Side
TTITLE9=Culture Club - Love Is Love
TTITLE10=Alice Cooper - How You Gotta See Me Now
TTITLE11=Kansas - Dust In The Wind
TTITLE12=Bianchi - Memories
EXTD=
EXTT0=
EXTT1=
EXTT2=
EXTT3=
EXTT4=
EXTT5=
EXTT6=
EXTT7=
EXTT8=
EXTT9=
EXTT10=
EXTT11=
EXTT12=
PLAYORDER=
